<svg xmlns="http://www.w3.org/2000/svg" xmlns:xlink="http://www.w3.org/1999/xlink" width="500" zoomAndPan="magnify" viewBox="0 0 375 374.999991" height="500" preserveAspectRatio="xMidYMid meet" version="1.0"><defs><g/><clipPath id="a1a5293b4b"><path d="M 88.738281 247.035156 L 302.488281 247.035156 L 302.488281 259.785156 L 88.738281 259.785156 Z M 88.738281 247.035156 " clip-rule="nonzero"/></clipPath></defs><g clip-path="url(#a1a5293b4b)"><path fill="#ffffff" d="M 95.980469 252.339844 C 92.722656 253.066406 90.289062 254.121094 89.296875 255.265625 C 85.585938 259.554688 101.429688 260.703125 103.292969 258.929688 C 99.757812 258.957031 97.890625 258.644531 96.777344 258.28125 C 131.382812 248.769531 245.695312 251.253906 302.476562 257.628906 C 295.496094 249.289062 144.035156 241.589844 95.980469 252.339844 Z M 95.980469 252.339844 " fill-opacity="1" fill-rule="nonzero"/></g><g fill="#ffffff" fill-opacity="1"><g transform="translate(94.00823, 216.961884)"><g><path d="M 78.515625 -43.90625 L 78.984375 -43.90625 C 82 -43.90625 88.28125 -51.578125 80.140625 -55.296875 L 78.75 -55.984375 C 87.34375 -82.703125 96.875 -109.65625 102.921875 -134.28125 C 103.140625 -134.96875 100.359375 -142.640625 96.40625 -142.640625 C 94.78125 -142.640625 93.390625 -141.484375 91.765625 -139.390625 C 73.640625 -112.671875 53.203125 -87.34375 33.6875 -61.796875 C 18.125 -61.09375 4.640625 -58.078125 1.859375 -51.578125 C -1.625 -44.140625 4.640625 -30.4375 3.953125 -19.28125 L -1.625 -10.453125 C -3.25 -7.671875 0.234375 -1.390625 2.78125 -1.390625 C 3.25 -1.390625 3.484375 -1.625 4.1875 -2.09375 C 10.921875 -17.1875 21.84375 -33.6875 34.609375 -51.34375 C 44.140625 -50.875 54.125 -49.484375 62.953125 -47.859375 C 56.453125 -27.875 49.25 -6.96875 45.296875 13.234375 C 43.90625 18.578125 50.171875 28.8125 53.4375 28.8125 C 54.125 28.8125 54.59375 28.34375 55.0625 26.953125 C 59.703125 2.328125 67.140625 -21.375 75.03125 -45.0625 C 76.203125 -44.84375 77.359375 -44.375 78.515625 -43.90625 Z M 66.671875 -59.234375 C 59.234375 -60.640625 50.640625 -61.5625 41.8125 -61.796875 C 55.75 -80.140625 70.390625 -99.203125 83.40625 -117.78125 C 78.0625 -98.5 72.25 -78.984375 66.671875 -59.234375 Z M 13.46875 -50.40625 C 17.1875 -51.109375 21.375 -51.34375 26.015625 -51.34375 C 19.984375 -43.203125 14.171875 -34.84375 8.359375 -26.25 C 8.359375 -26.953125 8.125 -27.40625 8.125 -28.109375 C 6.734375 -38.5625 1.390625 -47.859375 13.46875 -50.40625 Z M 13.46875 -50.40625 "/></g></g></g><g fill="#ffffff" fill-opacity="1"><g transform="translate(169.498447, 216.961884)"><g><path d="M 50.875 -46.921875 C 42.75 -33.453125 32.0625 -16.71875 23 -3.484375 C 11.609375 -1.390625 0.703125 1.625 -7.4375 4.40625 C -10.921875 5.34375 -11.84375 11.609375 -10.453125 13.703125 C -9.296875 13.234375 -7.671875 13.015625 -5.8125 12.546875 C -3.25 19.515625 0.234375 24.859375 6.96875 24.859375 C 17.65625 24.859375 26.015625 13.46875 31.59375 6.046875 C 41.8125 5.109375 52.5 4.640625 62.265625 4.640625 C 84.796875 4.640625 103.84375 7.4375 106.40625 14.640625 C 106.40625 15.09375 106.625 16.03125 106.859375 16.03125 C 107.09375 16.03125 107.09375 16.03125 107.328125 15.796875 C 108.03125 14.640625 108.03125 13.234375 108.25 12.078125 C 110.8125 -2.78125 92.234375 -8.125 68.296875 -8.125 C 59.234375 -8.125 49.953125 -7.4375 40.421875 -6.5 C 49.484375 -20.21875 59.46875 -36.703125 67.828125 -51.109375 C 92.921875 -60.859375 121.03125 -90.140625 119.40625 -115.234375 C 119.171875 -120.5625 114.765625 -124.0625 109.65625 -124.0625 C 97.578125 -124.0625 87.8125 -106.625 82.46875 -98.5 C 69.6875 -78.515625 69.6875 -78.296875 57.609375 -58.078125 C 52.5 -56.21875 47.625 -55.515625 42.984375 -55.515625 C 34.84375 -55.515625 27.640625 -58.3125 23 -64.125 C 20.90625 -66.90625 23.46875 -71.78125 22.0625 -73.40625 C 21.84375 -73.875 21.375 -74.109375 20.90625 -74.109375 C 16.953125 -74.109375 14.875 -46.234375 42.984375 -46.234375 C 45.296875 -46.234375 48.09375 -46.46875 50.875 -46.921875 Z M 75.96875 -66.203125 C 79.921875 -73.875 103.609375 -114.296875 110.34375 -114.296875 C 121.734375 -114.296875 97.109375 -81.3125 75.96875 -66.203125 Z M -0.46875 10.921875 C 4.1875 9.984375 9.0625 9.296875 14.40625 8.125 C 10.6875 12.78125 7.90625 15.5625 6.046875 16.03125 C 5.8125 16.265625 5.34375 16.265625 5.109375 16.265625 C 2.78125 16.265625 0.703125 13.703125 -0.46875 10.921875 Z M -0.46875 10.921875 "/></g></g></g></svg>